<svg width="196" height="197" viewBox="0 0 196 197" fill="none" xmlns="http://www.w3.org/2000/svg">
<g clip-path="url(#clip0_208_4000)">
<path d="M93.3085 0.883122C92.7873 1.71716 93.8646 1.92568 98.2085 1.82142C101.927 1.71716 102.692 1.61291 102.692 1.19589C102.692 0.778867 101.892 0.674611 98.1043 0.570356C95.0114 0.500852 93.4476 0.605108 93.3085 0.883122Z" fill="#3D5224"/>
<path d="M81.1444 1.71684C79.9976 1.99486 78.677 2.20337 78.1905 2.23812C77.1132 2.23812 76.1402 3.52394 76.9742 3.8367C77.426 4.01046 84.4458 3.14167 85.7664 2.72465C86.0444 2.65514 86.1834 2.30762 86.1139 1.99486C85.9749 1.19557 83.9593 1.09131 81.1444 1.71684Z" fill="#3D5224"/>
<path d="M109.92 1.75019C109.607 2.58423 110.094 2.79275 113.291 3.24452C119.616 4.18282 119.268 4.18282 119.129 3.24452C119.025 2.51473 118.712 2.37572 115.723 1.85445C111.449 1.05516 110.198 1.05516 109.92 1.75019Z" fill="#3D5224"/>
<path d="M64.9163 5.99022C61.6149 7.10227 61.1631 7.34554 61.1631 8.04057C61.1631 9.11788 61.6844 9.08313 66.2021 7.48454C69.2255 6.40724 70.0248 5.99022 70.0248 5.50369C70.0248 4.49589 68.9822 4.60015 64.9163 5.99022Z" fill="#3D5224"/>
<path d="M125.94 5.05308C125.836 5.26159 125.906 5.60911 126.114 5.81762C126.566 6.26939 132.474 8.49351 133.899 8.73677C134.802 8.91053 134.872 8.84103 134.767 8.11124C134.698 7.4162 134.107 7.10344 131.188 5.99138C127.539 4.63606 126.357 4.42755 125.94 5.05308Z" fill="#3D5224"/>
<path d="M50.0421 12.8386C48.235 13.8812 46.6017 14.7847 46.4627 14.8542C46.0456 14.9933 46.5669 16.1401 47.0534 16.1401C47.262 16.1748 49.1038 15.3408 51.1542 14.333C54.1776 12.8386 54.8726 12.3521 54.8726 11.6918C54.9073 10.4408 53.691 10.7535 50.0421 12.8386Z" fill="#3D5224"/>
<path d="M141.127 11.6918C141.127 12.3521 141.822 12.8386 144.845 14.333C146.896 15.3408 148.772 16.1748 149.015 16.1401C149.224 16.1401 149.432 15.8273 149.432 15.4798C149.432 14.9585 148.494 14.2635 146.027 12.8734C142.274 10.7188 141.092 10.4408 141.127 11.6918Z" fill="#3D5224"/>
<path d="M37.0103 21.5619C35.6897 22.6392 34.2301 23.786 33.7784 24.1335C32.9443 24.7938 33.0486 25.8711 33.9174 25.8711C34.7514 25.8711 40.6592 20.9363 40.6592 20.2413C40.6592 19.1292 39.5124 19.5463 37.0103 21.5619Z" fill="#3D5224"/>
<path d="M155.34 20.2413C155.34 20.9711 161.248 25.8711 162.116 25.8711C163.437 25.8711 162.499 24.4115 159.719 22.0832C156.834 19.6158 155.34 18.9902 155.34 20.2413Z" fill="#3D5224"/>
<path d="M24.4304 33.6885C22.936 35.3218 21.7197 36.8509 21.7197 37.0942C21.7197 37.3374 22.0325 37.5459 22.4495 37.6154C23.0055 37.685 23.8048 36.9899 25.6814 34.7658C27.0367 33.1325 28.1488 31.5686 28.1488 31.2906C28.1488 30.1438 27.0367 30.8389 24.4304 33.6885Z" fill="#3D5224"/>
<path d="M167.851 31.4637C167.851 32.2629 172.924 38.0317 173.654 38.0317C174.697 38.0317 173.967 36.4332 171.639 33.653C169.136 30.6991 167.851 29.9693 167.851 31.4637Z" fill="#3D5224"/>
<path d="M16.2289 44.3576C12.8579 48.8405 11.6416 51.5859 13.0317 51.5859C13.6225 51.5859 18.0707 44.8441 18.0707 43.9405C18.0707 42.898 17.1672 43.1065 16.2289 44.3576Z" fill="#3D5224"/>
<path d="M177.929 44.1143C177.929 44.9136 182.446 51.5859 183.002 51.5859C183.871 51.5859 183.524 50.5434 181.543 47.0335C179.91 44.1838 179.458 43.593 178.763 43.593C178.276 43.593 177.929 43.8015 177.929 44.1143Z" fill="#3D5224"/>
<path d="M8.3748 58.4305C7.43651 60.2375 5.24714 65.9368 5.4209 66.2148C5.73367 66.7709 6.94998 66.5624 7.19324 65.9021C7.2975 65.5893 7.92303 63.9907 8.58331 62.3574C10.2514 58.3262 10.3209 57.8397 9.45211 57.8397C9.03509 57.8397 8.58331 58.1177 8.3748 58.4305Z" fill="#3D5224"/>
<path d="M186.27 58.467C186.27 58.8493 186.826 60.6216 187.486 62.3592C188.146 64.0968 188.702 65.7649 188.702 66.0082C188.702 66.4252 189.432 66.877 190.127 66.877C190.787 66.877 190.335 64.8614 188.945 61.4904C187.972 59.2316 187.277 57.9805 186.86 57.911C186.478 57.8415 186.27 58.0153 186.27 58.467Z" fill="#3D5224"/>
<path d="M3.19669 73.5853C2.5364 74.3846 1.07683 81.9604 1.5286 82.2385C2.4669 82.8987 2.88392 82.2732 3.5442 79.2151C4.58676 74.2803 4.69101 73.1335 4.10023 73.1335C3.78747 73.1335 3.4052 73.342 3.19669 73.5853Z" fill="#3D5224"/>
<path d="M191.621 73.9658C191.517 74.2438 191.76 75.9119 192.142 77.6495C192.559 79.4218 192.872 81.1941 192.872 81.6459C192.872 82.4452 193.706 83.036 194.297 82.6537C195.235 82.0977 193.532 73.7573 192.42 73.5488C192.107 73.4793 191.725 73.653 191.621 73.9658Z" fill="#3D5224"/>
<path d="M0.416699 89.8818C-0.104577 90.403 -0.174081 98.7087 0.347196 99.0215C0.555707 99.1605 0.972728 99.0562 1.25074 98.813C1.66776 98.4655 1.73727 97.5619 1.66776 94.052C1.56351 89.7775 1.32025 88.9782 0.416699 89.8818Z" fill="#3D5224"/>
<path d="M194.505 89.7071C194.366 89.8114 194.262 91.9312 194.262 94.3291C194.262 97.8043 194.366 98.8468 194.783 99.1943C195.061 99.4029 195.443 99.5071 195.652 99.3681C196.173 99.0553 196.104 90.4021 195.582 89.8809C195.096 89.3943 194.818 89.3596 194.505 89.7071Z" fill="#3D5224"/>
<path d="M0.4861 106.666C0.103831 107.604 1.07688 114.763 1.63291 115.215C2.64071 116.049 2.88397 115.076 2.46695 111.983C2.25844 110.419 2.04993 108.473 1.98043 107.709C1.94567 106.701 1.73716 106.284 1.28539 106.214C0.972625 106.145 0.590355 106.353 0.4861 106.666Z" fill="#3D5224"/>
<path d="M194.089 106.91C194.019 107.154 193.776 108.926 193.568 110.837C193.359 112.749 193.116 114.556 193.012 114.869C192.803 115.564 193.846 116.015 194.436 115.529C194.923 115.112 195.861 107.884 195.548 107.049C195.27 106.389 194.297 106.32 194.089 106.91Z" fill="#3D5224"/>
<path d="M3.12793 123.07C3.12793 123.626 3.61445 125.711 4.20523 127.761C5.10878 130.819 5.42155 131.514 5.97758 131.514C6.32509 131.514 6.70736 131.271 6.84637 130.958C7.05488 130.402 5.03928 123.348 4.41375 122.548C3.82297 121.784 3.12793 122.062 3.12793 123.07Z" fill="#3D5224"/>
<path d="M191.586 122.896C191.03 123.8 188.806 130.993 188.945 131.41C189.049 131.654 189.327 131.862 189.57 131.862C190.3 131.862 190.648 131.167 191.933 127.171C192.802 124.425 193.045 123.244 192.802 122.931C192.35 122.375 191.933 122.375 191.586 122.896Z" fill="#3D5224"/>
<path d="M8.6875 138.672C8.6875 140.028 12.1974 146.457 12.962 146.457C13.9698 146.457 13.6223 145.101 11.7109 141.418C9.83431 137.838 8.6875 136.761 8.6875 138.672Z" fill="#3D5224"/>
<path d="M184.011 141.939C182.169 145.658 181.891 146.944 183.107 146.735C183.767 146.596 187.277 140.063 187.312 138.881C187.312 138.36 187.103 138.117 186.617 138.117C186.096 138.117 185.505 138.985 184.011 141.939Z" fill="#3D5224"/>
<path d="M16.7156 153.132C16.7503 154.278 20.8858 159.804 21.8241 159.943C23.1794 160.151 22.6929 158.796 20.295 155.495C17.9319 152.332 16.6461 151.463 16.7156 153.132Z" fill="#3D5224"/>
<path d="M176.852 154C176.4 154.695 175.323 156.189 174.385 157.266C172.786 159.212 172.473 160.359 173.585 160.359C174.489 160.359 178.972 154.486 178.972 153.339C178.972 152.227 177.686 152.644 176.852 154Z" fill="#3D5224"/>
<path d="M27.1055 165.85C27.1055 166.754 32.353 171.828 33.2913 171.828C33.7083 171.828 34.0558 171.619 34.0558 171.376C34.0558 170.716 28.3913 165.225 27.6962 165.225C27.3487 165.225 27.1055 165.503 27.1055 165.85Z" fill="#3D5224"/>
<path d="M164.133 168.388C161.283 171.168 160.831 172.176 162.43 172.176C163.333 172.176 168.546 167.067 168.546 166.163C168.546 164.808 166.982 165.607 164.133 168.388Z" fill="#3D5224"/>
<path d="M39.6172 176.658C39.6172 177.666 45.3512 181.905 46.7065 181.905C48.0966 181.905 47.0888 180.55 43.9612 178.326C40.5207 175.893 39.6172 175.546 39.6172 176.658Z" fill="#3D5224"/>
<path d="M153.811 177.212C153.255 177.664 151.726 178.637 150.44 179.367C149.119 180.097 148.042 180.757 148.042 180.861C148.042 180.966 148.216 181.278 148.39 181.556C148.841 182.251 150.058 181.765 153.602 179.436C155.375 178.255 156.382 177.351 156.382 176.969C156.382 176.066 155.027 176.205 153.811 177.212Z" fill="#3D5224"/>
<path d="M53.5176 185.45C53.5176 186.145 54.0736 186.492 57.097 187.709C60.9892 189.342 62.3445 189.585 62.136 188.612C62.0318 188.091 55.0119 184.685 53.9694 184.685C53.7261 184.685 53.5176 185.033 53.5176 185.45Z" fill="#3D5224"/>
<path d="M137.026 186.562C134.002 187.778 133.481 188.091 133.446 188.751C133.446 189.967 134.697 189.759 138.659 187.952C141.231 186.736 142.134 186.145 142.134 185.693C142.134 184.72 141.057 184.894 137.026 186.562Z" fill="#3D5224"/>
<path d="M68.8782 191.53C69.0172 192.295 74.091 194.102 76.2456 194.172C77.4619 194.241 77.6704 194.137 77.6704 193.546C77.6704 192.955 77.1144 192.712 74.1952 191.913C69.9208 190.801 68.7044 190.696 68.8782 191.53Z" fill="#3D5224"/>
<path d="M121.388 191.915C118.469 192.644 117.809 192.922 117.809 193.444C117.809 194.521 118.677 194.521 122.848 193.513C126.497 192.61 126.844 192.471 126.844 191.741C126.844 190.698 126.045 190.733 121.388 191.915Z" fill="#3D5224"/>
<path d="M84.7939 194.867C84.7939 195.84 85.6975 196.083 89.8677 196.327C93.0301 196.535 94.1422 196.466 94.3507 196.153C94.9067 195.215 93.6556 194.832 89.2422 194.589C85.4542 194.415 84.7939 194.45 84.7939 194.867Z" fill="#3D5224"/>
<path d="M104.429 194.728C101.822 194.937 101.649 195.006 101.544 195.771L101.405 196.605L105.714 196.362C109.919 196.118 111.275 195.701 110.719 194.798C110.475 194.416 109.294 194.381 104.429 194.728Z" fill="#3D5224"/>
<path d="M82.8919 132.879C82.0696 132.879 81.2988 132.75 80.5794 132.491C79.8599 132.236 79.1919 131.8 78.5752 131.183L52.0585 104.667C50.928 103.536 50.3874 102.071 50.4367 100.27C50.4901 98.4734 51.0821 97.0098 52.2127 95.8793C53.3432 94.7487 54.7821 94.1835 56.5294 94.1835C58.2766 94.1835 59.7155 94.7487 60.846 95.8793L82.8919 117.925L135.154 65.6626C136.285 64.5321 137.751 63.9668 139.551 63.9668C141.348 63.9668 142.811 64.5321 143.942 65.6626C145.072 66.7932 145.638 68.2567 145.638 70.0533C145.638 71.854 145.072 73.3196 143.942 74.4501L87.2085 131.183C86.5919 131.8 85.9238 132.236 85.2044 132.491C84.4849 132.75 83.7141 132.879 82.8919 132.879Z" fill="#3D5224"/>
</g>
<defs>
<clipPath id="clip0_208_4000">
<rect width="196" height="196" fill="white" transform="translate(0 0.5)"/>
</clipPath>
</defs>
</svg>
